<mxfile host="app.diagrams.net" modified="2021-09-13T08:52:21.486Z" agent="5.0 (Macintosh; Intel Mac OS X 10_15_7) AppleWebKit/537.36 (KHTML, like Gecko) Chrome/93.0.4577.63 Safari/537.36" etag="00XCEE_nJEYJCGQUb_8Y" version="15.1.4" type="github">
  <diagram id="OAuBWBtx8IdtZ1tRaI8M" name="Page-1">
    <mxGraphModel dx="1810" dy="548" grid="1" gridSize="10" guides="1" tooltips="1" connect="1" arrows="1" fold="1" page="1" pageScale="1" pageWidth="827" pageHeight="1169" math="0" shadow="0">
      <root>
        <mxCell id="0" />
        <mxCell id="1" parent="0" />
        <mxCell id="LgriUW__GH0HpEI8a37M-36" value="" style="verticalLabelPosition=bottom;shadow=0;dashed=0;align=center;html=1;verticalAlign=top;strokeWidth=1;shape=mxgraph.mockup.markup.curlyBrace;strokeColor=#999999;" vertex="1" parent="1">
          <mxGeometry x="95" y="400" width="585" height="140" as="geometry" />
        </mxCell>
        <mxCell id="LgriUW__GH0HpEI8a37M-7" style="edgeStyle=orthogonalEdgeStyle;rounded=0;orthogonalLoop=1;jettySize=auto;html=1;entryX=0;entryY=0.5;entryDx=0;entryDy=0;endArrow=none;endFill=0;" edge="1" parent="1" source="LgriUW__GH0HpEI8a37M-6" target="LgriUW__GH0HpEI8a37M-9">
          <mxGeometry relative="1" as="geometry">
            <mxPoint x="250" y="555" as="targetPoint" />
          </mxGeometry>
        </mxCell>
        <mxCell id="LgriUW__GH0HpEI8a37M-6" value="" style="shape=image;html=1;verticalAlign=top;verticalLabelPosition=bottom;labelBackgroundColor=#ffffff;imageAspect=0;aspect=fixed;image=https://cdn4.iconfinder.com/data/icons/essential-app-2/16/record-round-circle-dot-128.png" vertex="1" parent="1">
          <mxGeometry x="80" y="540" width="30" height="30" as="geometry" />
        </mxCell>
        <mxCell id="LgriUW__GH0HpEI8a37M-16" style="edgeStyle=orthogonalEdgeStyle;rounded=0;orthogonalLoop=1;jettySize=auto;html=1;entryX=0;entryY=0.5;entryDx=0;entryDy=0;endArrow=none;endFill=0;" edge="1" parent="1" source="LgriUW__GH0HpEI8a37M-9" target="LgriUW__GH0HpEI8a37M-15">
          <mxGeometry relative="1" as="geometry" />
        </mxCell>
        <mxCell id="LgriUW__GH0HpEI8a37M-9" value="" style="shape=image;html=1;verticalAlign=top;verticalLabelPosition=bottom;labelBackgroundColor=#ffffff;imageAspect=0;aspect=fixed;image=https://cdn4.iconfinder.com/data/icons/essential-app-2/16/record-round-circle-dot-128.png" vertex="1" parent="1">
          <mxGeometry x="270" y="540" width="30" height="30" as="geometry" />
        </mxCell>
        <mxCell id="LgriUW__GH0HpEI8a37M-12" value="" style="edgeStyle=orthogonalEdgeStyle;rounded=0;orthogonalLoop=1;jettySize=auto;html=1;endArrow=none;endFill=0;" edge="1" parent="1" source="LgriUW__GH0HpEI8a37M-10" target="LgriUW__GH0HpEI8a37M-6">
          <mxGeometry relative="1" as="geometry" />
        </mxCell>
        <mxCell id="LgriUW__GH0HpEI8a37M-10" value="factuur vervallen" style="text;html=1;strokeColor=none;fillColor=none;align=center;verticalAlign=middle;whiteSpace=wrap;rounded=0;" vertex="1" parent="1">
          <mxGeometry x="75" y="590" width="40" height="30" as="geometry" />
        </mxCell>
        <mxCell id="LgriUW__GH0HpEI8a37M-14" value="" style="edgeStyle=orthogonalEdgeStyle;rounded=0;orthogonalLoop=1;jettySize=auto;html=1;endArrow=none;endFill=0;" edge="1" parent="1" source="LgriUW__GH0HpEI8a37M-13" target="LgriUW__GH0HpEI8a37M-9">
          <mxGeometry relative="1" as="geometry" />
        </mxCell>
        <mxCell id="LgriUW__GH0HpEI8a37M-13" value="final reminder verstuurd&lt;br&gt;&amp;nbsp;(bundled_reminders.sent_at)" style="text;html=1;strokeColor=none;fillColor=none;align=center;verticalAlign=middle;whiteSpace=wrap;rounded=0;" vertex="1" parent="1">
          <mxGeometry x="190" y="590" width="190" height="50" as="geometry" />
        </mxCell>
        <mxCell id="LgriUW__GH0HpEI8a37M-26" value="" style="edgeStyle=orthogonalEdgeStyle;rounded=0;orthogonalLoop=1;jettySize=auto;html=1;endArrow=none;endFill=0;" edge="1" parent="1" source="LgriUW__GH0HpEI8a37M-15" target="LgriUW__GH0HpEI8a37M-23">
          <mxGeometry relative="1" as="geometry" />
        </mxCell>
        <mxCell id="LgriUW__GH0HpEI8a37M-15" value="" style="shape=image;html=1;verticalAlign=top;verticalLabelPosition=bottom;labelBackgroundColor=#ffffff;imageAspect=0;aspect=fixed;image=https://cdn4.iconfinder.com/data/icons/essential-app-2/16/record-round-circle-dot-128.png" vertex="1" parent="1">
          <mxGeometry x="420" y="540" width="30" height="30" as="geometry" />
        </mxCell>
        <mxCell id="LgriUW__GH0HpEI8a37M-18" style="edgeStyle=orthogonalEdgeStyle;rounded=0;orthogonalLoop=1;jettySize=auto;html=1;entryX=0.5;entryY=1;entryDx=0;entryDy=0;endArrow=none;endFill=0;" edge="1" parent="1" source="LgriUW__GH0HpEI8a37M-17" target="LgriUW__GH0HpEI8a37M-15">
          <mxGeometry relative="1" as="geometry" />
        </mxCell>
        <mxCell id="LgriUW__GH0HpEI8a37M-17" value="final reminder brief bezorgd" style="text;html=1;strokeColor=none;fillColor=none;align=center;verticalAlign=middle;whiteSpace=wrap;rounded=0;" vertex="1" parent="1">
          <mxGeometry x="402.5" y="590" width="65" height="60" as="geometry" />
        </mxCell>
        <mxCell id="LgriUW__GH0HpEI8a37M-19" value="" style="shape=image;html=1;verticalAlign=top;verticalLabelPosition=bottom;labelBackgroundColor=#ffffff;imageAspect=0;aspect=fixed;image=https://cdn4.iconfinder.com/data/icons/essential-app-2/16/record-round-circle-dot-128.png" vertex="1" parent="1">
          <mxGeometry x="660" y="540" width="30" height="30" as="geometry" />
        </mxCell>
        <mxCell id="LgriUW__GH0HpEI8a37M-21" value="" style="edgeStyle=orthogonalEdgeStyle;rounded=0;orthogonalLoop=1;jettySize=auto;html=1;endArrow=none;endFill=0;" edge="1" parent="1" source="LgriUW__GH0HpEI8a37M-20" target="LgriUW__GH0HpEI8a37M-19">
          <mxGeometry relative="1" as="geometry" />
        </mxCell>
        <mxCell id="LgriUW__GH0HpEI8a37M-20" value="credit case creation" style="text;html=1;strokeColor=none;fillColor=none;align=center;verticalAlign=middle;whiteSpace=wrap;rounded=0;" vertex="1" parent="1">
          <mxGeometry x="652.5" y="595" width="45" height="50" as="geometry" />
        </mxCell>
        <mxCell id="LgriUW__GH0HpEI8a37M-27" value="" style="edgeStyle=orthogonalEdgeStyle;rounded=0;orthogonalLoop=1;jettySize=auto;html=1;endArrow=none;endFill=0;" edge="1" parent="1" source="LgriUW__GH0HpEI8a37M-23" target="LgriUW__GH0HpEI8a37M-19">
          <mxGeometry relative="1" as="geometry" />
        </mxCell>
        <mxCell id="LgriUW__GH0HpEI8a37M-23" value="" style="shape=image;html=1;verticalAlign=top;verticalLabelPosition=bottom;labelBackgroundColor=#ffffff;imageAspect=0;aspect=fixed;image=https://cdn4.iconfinder.com/data/icons/essential-app-2/16/record-round-circle-dot-128.png" vertex="1" parent="1">
          <mxGeometry x="560" y="540" width="30" height="30" as="geometry" />
        </mxCell>
        <mxCell id="LgriUW__GH0HpEI8a37M-25" value="" style="edgeStyle=orthogonalEdgeStyle;rounded=0;orthogonalLoop=1;jettySize=auto;html=1;endArrow=none;endFill=0;" edge="1" parent="1" source="LgriUW__GH0HpEI8a37M-24" target="LgriUW__GH0HpEI8a37M-23">
          <mxGeometry relative="1" as="geometry" />
        </mxCell>
        <mxCell id="LgriUW__GH0HpEI8a37M-24" value="credit case creation notification" style="text;html=1;strokeColor=none;fillColor=none;align=center;verticalAlign=middle;whiteSpace=wrap;rounded=0;" vertex="1" parent="1">
          <mxGeometry x="542.5" y="595" width="65" height="65" as="geometry" />
        </mxCell>
        <mxCell id="LgriUW__GH0HpEI8a37M-28" value="" style="verticalLabelPosition=bottom;shadow=0;dashed=0;align=center;html=1;verticalAlign=top;strokeWidth=1;shape=mxgraph.mockup.markup.curlyBrace;strokeColor=#999999;" vertex="1" parent="1">
          <mxGeometry x="95" y="515" width="195" height="20" as="geometry" />
        </mxCell>
        <mxCell id="LgriUW__GH0HpEI8a37M-34" value="" style="verticalLabelPosition=bottom;shadow=0;dashed=0;align=center;html=1;verticalAlign=top;strokeWidth=1;shape=mxgraph.mockup.markup.curlyBrace;strokeColor=#999999;" vertex="1" parent="1">
          <mxGeometry x="290" y="500" width="150" height="35" as="geometry" />
        </mxCell>
        <mxCell id="LgriUW__GH0HpEI8a37M-35" value="" style="verticalLabelPosition=bottom;shadow=0;dashed=0;align=center;html=1;verticalAlign=top;strokeWidth=1;shape=mxgraph.mockup.markup.curlyBrace;strokeColor=#999999;" vertex="1" parent="1">
          <mxGeometry x="570" y="515" width="110" height="20" as="geometry" />
        </mxCell>
        <mxCell id="LgriUW__GH0HpEI8a37M-38" value="credit_case_creation_delay_days" style="text;html=1;strokeColor=none;fillColor=none;align=center;verticalAlign=middle;whiteSpace=wrap;rounded=0;" vertex="1" parent="1">
          <mxGeometry x="300" y="370" width="207.5" height="20" as="geometry" />
        </mxCell>
        <mxCell id="LgriUW__GH0HpEI8a37M-40" value="administration.notifications_configuration.debt_collection_notification_days" style="text;html=1;strokeColor=none;fillColor=none;align=center;verticalAlign=middle;whiteSpace=wrap;rounded=0;" vertex="1" parent="1">
          <mxGeometry x="414" y="495" width="460" height="20" as="geometry" />
        </mxCell>
        <mxCell id="LgriUW__GH0HpEI8a37M-41" value="BundledReminders::Configuration.final_reminder_delay_days" style="text;html=1;strokeColor=none;fillColor=none;align=center;verticalAlign=middle;whiteSpace=wrap;rounded=0;" vertex="1" parent="1">
          <mxGeometry x="-70" y="495" width="340" height="20" as="geometry" />
        </mxCell>
        <mxCell id="LgriUW__GH0HpEI8a37M-43" value="BundledReminders::Configuration::EXTRA_POSTAL_DAYS = 4" style="text;html=1;strokeColor=none;fillColor=none;align=center;verticalAlign=middle;whiteSpace=wrap;rounded=0;" vertex="1" parent="1">
          <mxGeometry x="345" y="480" width="40" height="20" as="geometry" />
        </mxCell>
      </root>
    </mxGraphModel>
  </diagram>
</mxfile>
